<mxfile host="app.diagrams.net" agent="Mozilla/5.0 (Windows NT 10.0; Win64; x64) AppleWebKit/537.36 (KHTML, like Gecko) Chrome/131.0.0.0 Safari/537.36" version="25.0.1">
  <diagram name="PÃ¡gina-1" id="wCWs3iTlJMUfUceCVh-2">
    <mxGraphModel dx="880" dy="426" grid="1" gridSize="10" guides="1" tooltips="1" connect="1" arrows="1" fold="1" page="1" pageScale="1" pageWidth="827" pageHeight="1169" math="0" shadow="0">
      <root>
        <mxCell id="0" />
        <mxCell id="1" parent="0" />
        <mxCell id="qWO5MCbI-JOVm2-MK2-1-1" value="INICIO" style="strokeWidth=2;html=1;shape=mxgraph.flowchart.start_1;whiteSpace=wrap;" vertex="1" parent="1">
          <mxGeometry x="370" y="88" width="100" height="60" as="geometry" />
        </mxCell>
        <mxCell id="qWO5MCbI-JOVm2-MK2-1-2" value="FIM" style="strokeWidth=2;html=1;shape=mxgraph.flowchart.start_1;whiteSpace=wrap;" vertex="1" parent="1">
          <mxGeometry x="370" y="458" width="100" height="60" as="geometry" />
        </mxCell>
        <mxCell id="qWO5MCbI-JOVm2-MK2-1-3" style="edgeStyle=orthogonalEdgeStyle;rounded=0;orthogonalLoop=1;jettySize=auto;html=1;entryX=0.491;entryY=0.188;entryDx=0;entryDy=0;entryPerimeter=0;" edge="1" parent="1" source="qWO5MCbI-JOVm2-MK2-1-4" target="qWO5MCbI-JOVm2-MK2-1-5">
          <mxGeometry relative="1" as="geometry" />
        </mxCell>
        <mxCell id="qWO5MCbI-JOVm2-MK2-1-4" value="NOME" style="html=1;strokeWidth=2;shape=manualInput;whiteSpace=wrap;rounded=1;size=26;arcSize=11;" vertex="1" parent="1">
          <mxGeometry x="370" y="178" width="100" height="60" as="geometry" />
        </mxCell>
        <mxCell id="qWO5MCbI-JOVm2-MK2-1-5" value="SOBRENOME" style="html=1;strokeWidth=2;shape=manualInput;whiteSpace=wrap;rounded=1;size=26;arcSize=11;" vertex="1" parent="1">
          <mxGeometry x="370" y="268" width="100" height="60" as="geometry" />
        </mxCell>
        <mxCell id="qWO5MCbI-JOVm2-MK2-1-6" value="NOME&lt;div&gt;SOBRENOME&lt;/div&gt;" style="strokeWidth=2;html=1;shape=mxgraph.flowchart.display;whiteSpace=wrap;" vertex="1" parent="1">
          <mxGeometry x="370" y="368" width="100" height="60" as="geometry" />
        </mxCell>
        <mxCell id="qWO5MCbI-JOVm2-MK2-1-7" style="edgeStyle=orthogonalEdgeStyle;rounded=0;orthogonalLoop=1;jettySize=auto;html=1;exitX=0.5;exitY=1;exitDx=0;exitDy=0;exitPerimeter=0;entryX=0.5;entryY=0.233;entryDx=0;entryDy=0;entryPerimeter=0;" edge="1" parent="1" source="qWO5MCbI-JOVm2-MK2-1-1" target="qWO5MCbI-JOVm2-MK2-1-4">
          <mxGeometry relative="1" as="geometry" />
        </mxCell>
        <mxCell id="qWO5MCbI-JOVm2-MK2-1-8" style="edgeStyle=orthogonalEdgeStyle;rounded=0;orthogonalLoop=1;jettySize=auto;html=1;exitX=0.5;exitY=1;exitDx=0;exitDy=0;entryX=0.5;entryY=0;entryDx=0;entryDy=0;entryPerimeter=0;" edge="1" parent="1" source="qWO5MCbI-JOVm2-MK2-1-5" target="qWO5MCbI-JOVm2-MK2-1-6">
          <mxGeometry relative="1" as="geometry" />
        </mxCell>
        <mxCell id="qWO5MCbI-JOVm2-MK2-1-9" style="edgeStyle=orthogonalEdgeStyle;rounded=0;orthogonalLoop=1;jettySize=auto;html=1;exitX=0.5;exitY=1;exitDx=0;exitDy=0;exitPerimeter=0;entryX=0.5;entryY=0;entryDx=0;entryDy=0;entryPerimeter=0;" edge="1" parent="1" source="qWO5MCbI-JOVm2-MK2-1-6" target="qWO5MCbI-JOVm2-MK2-1-2">
          <mxGeometry relative="1" as="geometry" />
        </mxCell>
      </root>
    </mxGraphModel>
  </diagram>
</mxfile>
